#N canvas 162 22 697 647 10;
#X obj 233 292 + 1;
#X text 251 234 reset;
#X text 264 292 counter;
#X floatatom 185 345 5 0 0 0 - - -, f 5;
#X msg 218 233 0;
#X obj 185 293 i;
#X obj 185 384 sel 0 1;
#X obj 185 471 bng 15 250 50 0 empty empty empty 17 7 0 10 -262144
-1 -1;
#X text 137 468 play;
#X obj 209 471 bng 15 250 50 0 empty empty empty 17 7 0 10 -262144
-1 -1;
#X text 226 469 stop;
#X obj 208 421 t b b;
#X floatatom 185 514 5 0 0 0 - - -, f 5;
#X floatatom 249 515 5 0 0 0 - - -, f 5;
#X obj 185 557 ctlout \$1;
#X obj 249 557 ctlout \$2;
#X obj 186 124 inlet;
#X connect 0 0 5 1;
#X connect 3 0 6 0;
#X connect 4 0 5 1;
#X connect 5 0 0 0;
#X connect 5 0 3 0;
#X connect 6 0 7 0;
#X connect 6 1 11 0;
#X connect 7 0 12 0;
#X connect 9 0 13 0;
#X connect 11 0 9 0;
#X connect 11 1 4 0;
#X connect 12 0 14 0;
#X connect 13 0 15 0;
#X connect 16 0 5 0;
