#N canvas 1067 189 450 300 10;
#X obj 63 68 ctlin 9;
#X text 61 40 Low;
#X obj 209 68 ctlin 11;
#X text 212 40 High;
#X obj 133 68 ctlin 10;
#X text 136 41 Medium;
#X msg 133 99 0;
#X msg 209 98 0;
#X msg 63 99 0;
#X obj 133 127 outlet;
#X obj 209 127 outlet;
#X obj 63 127 outlet;
#X connect 0 0 8 0;
#X connect 2 0 7 0;
#X connect 4 0 6 0;
#X connect 6 0 9 0;
#X connect 7 0 10 0;
#X connect 8 0 11 0;
