#N canvas 304 22 446 304 10;
#X text 159 77 Loop;
#X text 159 44 Play/Pause;
#X obj 21 44 bng 15 250 50 0 empty empty empty 17 7 0 10 -262144 -1
-1;
#X text 156 172 Speed 100;
#X text 155 202 Speed 75;
#X text 156 234 Speed 50;
#X text 155 260 Speed 25;
#X obj 21 107 bng 15 250 50 0 empty empty empty 17 7 0 10 -262144 -1
-1;
#X obj 22 139 bng 15 250 50 0 empty empty empty 17 7 0 10 -262144 -1
-1;
#X obj 23 201 bng 15 250 50 0 empty empty empty 17 7 0 10 -262144 -1
-1;
#X obj 20 75 bng 15 250 50 0 empty empty empty 17 7 0 10 -262144 -1
-1;
#X obj 24 232 bng 15 250 50 0 empty empty empty 17 7 0 10 -262144 -1
-1;
#X obj 23 260 bng 15 250 50 0 empty empty empty 17 7 0 10 -262144 -1
-1;
#X obj 22 173 bng 15 250 50 0 empty empty empty 17 7 0 10 -262144 -1
-1;
#X text 158 107 Forward;
#X text 158 141 Rewind;
#X obj 47 44 Play-Pause~ 0 1;
#X obj 47 76 CC~ 2;
#X obj 47 107 CC~ 3;
#X obj 47 139 CC~ 4;
#X obj 47 172 CC~ 5;
#X obj 47 202 CC~ 6;
#X obj 47 231 CC~ 7;
#X obj 46 258 CC~ 8;
#X obj 275 99 bng 15 250 50 0 empty empty empty 17 7 0 10 -262144 -1
-1;
#X msg 275 71 0;
#X obj 274 182 bng 15 250 50 0 empty empty empty 17 7 0 10 -262144
-1 -1;
#X msg 274 154 0;
#X obj 273 265 bng 15 250 50 0 empty empty empty 17 7 0 10 -262144
-1 -1;
#X msg 273 237 0;
#X obj 275 44 ctlin 9;
#X obj 275 127 ctlin 10;
#X obj 273 210 ctlin 11;
#X obj 303 99 print low;
#X obj 312 181 print medium;
#X obj 314 266 print high;
#X connect 2 0 16 0;
#X connect 7 0 18 0;
#X connect 8 0 19 0;
#X connect 9 0 21 0;
#X connect 10 0 17 0;
#X connect 11 0 22 0;
#X connect 12 0 23 0;
#X connect 13 0 20 0;
#X connect 24 0 33 0;
#X connect 25 0 24 0;
#X connect 26 0 34 0;
#X connect 27 0 26 0;
#X connect 28 0 35 0;
#X connect 29 0 28 0;
#X connect 30 0 25 0;
#X connect 31 0 27 0;
#X connect 32 0 29 0;
