#N canvas 1276 86 722 435 10;
#X obj 184 92 loadbang;
#X obj 54 161 setSensorThreshold~;
#X msg 184 129 0.5;
#X text 173 57 Open the scope to see the sensor values;
#X floatatom 54 223 5 0 0 0 - - -, f 5;
#X obj 54 115 /~ 0.83;
#X floatatom 102 81 5 0 0 0 - - -, f 5;
#X obj 54 26 adc~ \$1;
#X obj 54 266 ctlout \$2;
#X obj 110 56 outlet~;
#X obj 228 129 inlet;
#X connect 0 0 2 0;
#X connect 1 0 4 0;
#X connect 2 0 1 1;
#X connect 4 0 8 0;
#X connect 5 0 1 0;
#X connect 6 0 5 1;
#X connect 7 0 5 0;
#X connect 7 0 9 0;
#X connect 10 0 1 1;
