#N canvas 1425 99 459 422 10;
#X floatatom 34 387 5 0 0 0 - - -, f 5;
#X obj 34 350 bng 15 250 50 0 empty empty empty 17 7 0 10 -262144 -1
-1;
#X obj 34 289 spigot;
#X msg 299 214 1;
#X msg 339 214 0;
#X msg 34 218 1;
#X msg 91 219 0;
#X obj 34 323 metro 300;
#X obj 34 251 >= 1;
#X obj 430 106 loadbang;
#X obj 300 175 setSensorThreshold~;
#X msg 430 143 0.5;
#X obj 300 129 /~ 0.83;
#X floatatom 348 95 5 0 0 0 - - -, f 5;
#X obj 356 70 outlet~;
#X obj 163 107 loadbang;
#X obj 33 176 setSensorThreshold~;
#X msg 163 144 0.5;
#X obj 33 130 /~ 0.83;
#X floatatom 81 96 5 0 0 0 - - -, f 5;
#X obj 33 41 adc~ \$1;
#X obj 89 71 outlet~;
#X obj 300 40 adc~ \$2;
#X obj 34 429 ctlout \$3;
#X text 90 41 Stretch;
#X text 355 39 Enabler;
#X obj 205 144 inlet;
#X connect 0 0 23 0;
#X connect 1 0 0 0;
#X connect 2 0 7 0;
#X connect 3 0 2 1;
#X connect 4 0 2 1;
#X connect 5 0 8 0;
#X connect 6 0 8 0;
#X connect 7 0 1 0;
#X connect 8 0 2 0;
#X connect 9 0 11 0;
#X connect 10 0 3 0;
#X connect 10 1 4 0;
#X connect 11 0 10 1;
#X connect 12 0 10 0;
#X connect 13 0 12 1;
#X connect 15 0 17 0;
#X connect 16 0 5 0;
#X connect 16 1 6 0;
#X connect 17 0 16 1;
#X connect 18 0 16 0;
#X connect 19 0 18 1;
#X connect 20 0 18 0;
#X connect 20 0 21 0;
#X connect 22 0 12 0;
#X connect 22 0 14 0;
#X connect 26 0 16 1;
