#N canvas 1173 51 697 647 10;
#X obj 233 292 + 1;
#X text 251 234 reset;
#X text 264 292 counter;
#X floatatom 185 345 5 0 0 0 - - -, f 5;
#X msg 218 233 0;
#X obj 185 293 i;
#X obj 185 384 sel 0 1;
#X obj 185 471 bng 15 250 50 0 empty empty empty 17 7 0 10 -262144
-1 -1;
#X text 150 469 play;
#X obj 209 471 bng 15 250 50 0 empty empty empty 17 7 0 10 -262144
-1 -1;
#X obj 208 421 t b b;
#X floatatom 185 514 5 0 0 0 - - -, f 5;
#X floatatom 249 515 5 0 0 0 - - -, f 5;
#X obj 316 111 loadbang;
#X obj 186 180 setSensorThreshold~;
#X msg 316 148 0.5;
#X text 294 74 Open the scope to see the sensor values;
#X obj 186 134 /~ 0.83;
#X floatatom 234 100 5 0 0 0 - - -, f 5;
#X obj 186 46 adc~ \$1;
#X obj 185 557 ctlout \$2;
#X obj 249 557 ctlout \$3;
#X obj 242 75 outlet~;
#X obj 363 148 inlet;
#X text 226 469 pause;
#X connect 0 0 5 1;
#X connect 3 0 6 0;
#X connect 4 0 5 1;
#X connect 5 0 0 0;
#X connect 5 0 3 0;
#X connect 6 0 7 0;
#X connect 6 1 10 0;
#X connect 7 0 11 0;
#X connect 9 0 12 0;
#X connect 10 0 9 0;
#X connect 10 1 4 0;
#X connect 11 0 20 0;
#X connect 12 0 21 0;
#X connect 13 0 15 0;
#X connect 14 0 5 0;
#X connect 15 0 14 1;
#X connect 17 0 14 0;
#X connect 18 0 17 1;
#X connect 19 0 17 0;
#X connect 19 0 22 0;
#X connect 23 0 14 1;
